# xmcd
#
# Track frame offsets: 
#        151
#        18368
#        36467
#        55530
#        72739
#        92028
#        109167
#        130066
#        146601
#        165078
#        183343
#        199950
#        221009
#        240464
#        258483
#        276072
#
# Disc length: 3896 seconds
#
# Revision: 0
# Processed by: cddbd v1.5.1PL2 Copyright (c) Steve Scherf et al.
# Submitted via: ExactAudioCopy v0.95b4
#
DISCID=e70f3610
DTITLE=ปอยฝ้าย  มาลัยพร - รวมฮิต 16 เพลงดัง ตลับเพชร
DYEAR=2005
DGENRE=Country
TTITLE0=กะเทยประท้วง
TTITLE1=ตลกอกหัก
TTITLE2=น้ำตาขาร็อค
TTITLE3=วอนฟ้า
TTITLE4=ดอกกระเจียวลืมทุ่ง
TTITLE5=บุญคุณเอวลอย
TTITLE6=มือซอคนเศร้า
TTITLE7=ฮักน้องส้ม
TTITLE8=ปอยฝ้ายวอนแฟน
TTITLE9=ลูกสาวแฟนเก่า
TTITLE10=ชุดดำสปายแดง
TTITLE11=แปดสองหนคนสองใจ
TTITLE12=ขอพระพ่อพระใส
TTITLE13=รักจางที่ทางตัน
TTITLE14=รอรักจากสาวเวียง
TTITLE15=เบ็คแฮมอิสาน
EXTD=
EXTT0=
EXTT1=
EXTT2=
EXTT3=
EXTT4=
EXTT5=
EXTT6=
EXTT7=
EXTT8=
EXTT9=
EXTT10=
EXTT11=
EXTT12=
EXTT13=
EXTT14=
EXTT15=
PLAYORDER=
